<svg xmlns="http://www.w3.org/2000/svg" width="1280" height="720" viewBox="0 0 1280 720">
  <rect width="1280" height="720" fill="#eef2ff"/>
  <rect x="30" y="30" width="1220" height="80" rx="14" fill="#ffffff"/>
  <text x="60" y="80" font-size="30" font-family="Segoe UI" fill="#0f172a">Pengaturan Sistem</text>

  <rect x="30" y="130" width="590" height="560" rx="14" fill="#ffffff"/>
  <text x="60" y="180" font-size="24" font-family="Segoe UI" fill="#0f172a">Pengaturan Umum</text>
  <text x="60" y="220" font-size="16" font-family="Segoe UI" fill="#334155">Nama Perusahaan</text>
  <rect x="60" y="230" width="530" height="44" rx="8" fill="#e2e8f0"/>
  <text x="60" y="300" font-size="16" font-family="Segoe UI" fill="#334155">Logo Aplikasi</text>
  <rect x="60" y="310" width="530" height="110" rx="10" fill="#f8fafc" stroke="#cbd5e1" stroke-dasharray="8 6"/>

  <text x="60" y="470" font-size="24" font-family="Segoe UI" fill="#0f172a">Bahasa</text>
  <rect x="60" y="485" width="250" height="44" rx="8" fill="#e2e8f0"/>
  <text x="80" y="514" font-size="16" font-family="Segoe UI" fill="#334155">Indonesia / English</text>

  <rect x="650" y="130" width="600" height="560" rx="14" fill="#ffffff"/>
  <text x="680" y="180" font-size="24" font-family="Segoe UI" fill="#0f172a">Aturan Absensi</text>
  <text x="680" y="220" font-size="16" font-family="Segoe UI" fill="#334155">Radius Check-in (meter)</text>
  <rect x="680" y="230" width="540" height="44" rx="8" fill="#e2e8f0"/>
  <text x="680" y="300" font-size="16" font-family="Segoe UI" fill="#334155">Jam Mulai Kantor</text>
  <rect x="680" y="310" width="540" height="44" rx="8" fill="#e2e8f0"/>
  <text x="680" y="380" font-size="16" font-family="Segoe UI" fill="#334155">Toleransi Keterlambatan (menit)</text>
  <rect x="680" y="390" width="540" height="44" rx="8" fill="#e2e8f0"/>
  <text x="680" y="460" font-size="16" font-family="Segoe UI" fill="#334155">Jam Selesai Kantor</text>
  <rect x="680" y="470" width="540" height="44" rx="8" fill="#e2e8f0"/>

  <rect x="680" y="590" width="540" height="56" rx="10" fill="#16a34a"/>
  <text x="950" y="626" text-anchor="middle" font-size="22" font-family="Segoe UI" fill="#ffffff">Save Changes</text>
</svg>
